<svg width="1024" height="1024" viewBox="0 0 1024 1024" fill="none" xmlns="http://www.w3.org/2000/svg">
<g clip-path="url(#clip0_1_21)">
<rect width="1024" height="1024" rx="100" fill="#212529"/>
<path d="M442.36 675C434.509 675 420.003 660.835 398.84 632.504C377.677 603.832 352.077 564.067 322.04 513.208L369.144 498.872C397.475 541.88 421.027 575.501 439.8 599.736C458.915 623.971 475.811 641.549 490.488 652.472C505.165 663.395 519.501 668.856 533.496 668.856C534.179 668.856 534.52 669.88 534.52 671.928C534.52 673.976 534.179 675 533.496 675H442.36ZM332.28 353.464C363.341 353.464 387.405 359.267 404.472 370.872C421.539 382.136 430.072 398.008 430.072 418.488C430.072 437.944 424.44 455.523 413.176 471.224C402.253 486.925 387.917 499.213 370.168 508.088C352.419 516.621 333.816 520.888 314.36 520.888C301.048 520.888 291.661 520.717 286.2 520.376V633.528C286.2 644.109 287.053 651.789 288.76 656.568C290.467 661.347 293.709 664.589 298.488 666.296C303.608 668.003 311.629 668.856 322.552 668.856C323.235 668.856 323.576 669.88 323.576 671.928C323.576 673.976 323.235 675 322.552 675C311.288 675 302.413 674.829 295.928 674.488L257.016 673.976L219.64 674.488C212.813 674.829 203.597 675 191.992 675C190.968 675 190.456 673.976 190.456 671.928C190.456 669.88 190.968 668.856 191.992 668.856C202.915 668.856 210.765 668.003 215.544 666.296C220.664 664.589 224.077 661.347 225.784 656.568C227.832 651.448 228.856 643.768 228.856 633.528V396.472C228.856 386.232 228.003 378.723 226.296 373.944C224.589 369.165 221.176 365.923 216.056 364.216C210.936 362.168 203.085 361.144 192.504 361.144C191.821 361.144 191.48 360.12 191.48 358.072C191.48 356.024 191.821 355 192.504 355L219.64 355.512C235.341 356.195 247.8 356.536 257.016 356.536C268.621 356.536 280.739 356.024 293.368 355C297.805 354.659 303.267 354.317 309.752 353.976C316.579 353.635 324.088 353.464 332.28 353.464ZM371.704 437.944C371.704 409.955 367.608 390.669 359.416 380.088C351.224 369.507 339.448 364.216 324.088 364.216C310.435 364.216 300.707 366.776 294.904 371.896C289.101 377.016 286.2 385.549 286.2 397.496V506.04C294.392 507.405 304.291 508.088 315.896 508.088C335.693 508.088 349.859 502.627 358.392 491.704C367.267 480.44 371.704 462.52 371.704 437.944ZM723.124 349.368C739.167 349.368 755.38 350.733 771.764 353.464C788.489 355.853 801.801 359.096 811.7 363.192C814.772 364.216 816.649 365.581 817.332 367.288C818.356 368.653 819.039 371.213 819.38 374.968L826.036 446.136C826.036 447.16 825.183 447.843 823.476 448.184C821.769 448.525 820.575 448.013 819.892 446.648C810.335 418.659 796.681 397.325 778.932 382.648C761.183 367.629 739.849 360.12 714.932 360.12C691.721 360.12 670.9 366.435 652.468 379.064C634.377 391.352 620.041 409.101 609.46 432.312C599.22 455.523 594.1 482.659 594.1 513.72C594.1 545.123 599.391 572.771 609.972 596.664C620.895 620.216 635.743 638.477 654.516 651.448C673.631 664.077 695.476 670.392 720.052 670.392C743.604 670.392 763.401 664.077 779.444 651.448C795.487 638.477 810.676 617.315 825.012 587.96C825.353 586.936 826.377 586.595 828.084 586.936C829.791 587.277 830.644 587.96 830.644 588.984L822.964 652.472C822.281 656.568 821.599 659.299 820.916 660.664C820.233 661.688 818.356 662.883 815.284 664.248C783.881 675.512 752.137 681.144 720.052 681.144C683.529 681.144 650.761 674.317 621.748 660.664C593.076 646.669 570.548 627.213 554.164 602.296C537.78 577.379 529.588 549.048 529.588 517.304C529.588 484.877 537.951 456.035 554.676 430.776C571.743 405.176 594.953 385.208 624.308 370.872C654.004 356.536 686.943 349.368 723.124 349.368Z" fill="white"/>
</g>
<defs>
<clipPath id="clip0_1_21">
<rect width="1024" height="1024" fill="white"/>
</clipPath>
</defs>
</svg>
